<?xml version="1.0" standalone="no"?><!DOCTYPE svg PUBLIC "-//W3C//DTD SVG 1.1//EN" "http://www.w3.org/Graphics/SVG/1.1/DTD/svg11.dtd"><svg t="1761555527520" class="icon" viewBox="0 0 1024 1024" version="1.1" xmlns="http://www.w3.org/2000/svg" p-id="8445" xmlns:xlink="http://www.w3.org/1999/xlink" width="200" height="200"><path d="M631.686 156.523c14.689 3.173 26.853 10.945 36.458 23.315 9.602 12.369 15.014 27.749 16.316 46.142 0 5.697 0.325 14.607 0.935 26.652 0.651 12.045 0.977 24.739 0.977 38.085s-0.489 25.391-1.423 36.172c-0.977 10.783-2.726 17.456-5.29 19.979-3.824 4.435-7.526 6.51-11.027 6.185-3.499-0.325-5.29 1.423-5.29 5.249 0 1.913-0.489 8.545-1.423 19.979-0.935 11.434-3.662 27.302-8.138 47.605-2.563 10.783-6.226 20.466-11.027 29.011-4.801 8.545-9.764 16.357-14.851 23.315-6.388 7.609-12.777 14.607-19.165 20.955-0.651 8.26-0.977 16.195-0.977 23.804v19.979c0 6.958 0.325 12.369 0.977 16.195 0.651 7.609 2.563 13.020 5.737 16.195 3.215 3.173 9.602 6.022 19.165 8.545 3.215 1.261 8.953 3.173 17.252 5.697 8.3 2.524 18.228 5.859 29.744 10.011 11.516 4.11 23.478 8.423 35.969 12.857 12.451 4.435 24.453 8.707 35.969 12.857 11.516 4.15 21.728 7.935 30.679 11.434 8.953 3.499 15.666 6.185 20.141 8.097 12.777 6.348 21.241 13.020 25.43 19.979 4.15 6.998 7.812 15.869 11.027 26.652 1.261 5.697 3.052 16.153 5.29 31.41 2.238 15.218 4.639 31.086 7.202 47.565 2.563 16.519 4.639 32.063 6.226 46.628 1.587 14.607 2.726 23.804 3.378 27.586 0.651 8.26-0.815 15.218-4.314 20.955-3.499 5.697-11.677 10.173-24.453 13.306-10.865 2.524-26.691 5.249-47.483 8.097-20.791 2.848-44.921 5.534-72.385 8.097-27.506 2.524-57.697 4.597-90.614 6.185-32.917 1.587-67.585 2.401-104.041 2.401-36.416 0-71.286-0.651-104.53-1.913-33.243-1.261-63.759-3.010-91.59-5.207-27.791-2.238-52.407-4.762-73.851-7.609-21.403-2.848-38.207-5.859-50.332-9.033-2.563-0.651-5.737-1.913-9.602-3.824-3.824-1.913-7.526-4.272-11.027-7.12-3.499-2.848-6.226-6.348-8.138-10.457-1.913-4.11-2.563-8.707-1.913-13.793 0.651-4.435 2.401-14.444 5.29-29.987 2.889-15.543 6.226-32.185 10.050-49.967 3.824-17.781 7.365-34.422 10.538-49.967 3.215-15.543 5.454-25.227 6.714-29.011 2.563-7.609 6.226-15.543 11.027-23.804 4.801-8.26 12.939-16.804 24.453-25.716 5.737-4.435 16.316-9.196 31.657-14.283 15.34-5.086 31.33-9.846 47.931-14.283 16.602-4.435 32.267-8.26 46.996-11.434 14.689-3.173 24.29-5.411 28.767-6.673 9.602-1.913 18.066-4.272 25.391-7.12 7.365-2.848 11.027-6.834 11.027-11.882v-55.214c-7.039-5.697-13.753-12.045-20.141-19.042-5.737-5.697-11.516-12.531-17.252-20.466-5.737-7.935-10.865-16.357-15.34-25.227-8.953-17.131-14.689-32.836-17.252-47.118-2.563-14.283-4.15-22.663-4.801-25.227-0.651-2.524-3.052-4.597-7.202-6.185-4.15-1.587-7.202-4.923-9.115-10.011-5.126-10.783-7.526-22.215-7.202-34.259 0.325-12.045 1.14-29.174 2.401-51.39 1.913-22.215 5.574-43.455 11.027-63.759 5.454-20.304 17.414-39.020 35.969-56.15 9.602-8.26 22.379-15.055 38.369-20.466 15.99-5.371 32.267-9.358 48.909-11.882 16.602-2.524 32.429-3.824 47.483-3.824 15.014 0 26.366 0.935 34.058 2.848 8.3 2.524 15.014 5.249 20.141 8.097 5.126 2.848 9.115 5.534 12.002 8.097 2.889 2.524 5.29 4.923 7.202 7.12 1.913 2.238 3.824 3.947 5.737 5.249 3.215 2.524 7.365 3.335 12.451 2.361 5.005-0.977 13.957-0.204 26.732 2.361v0zM543.473 678.071l25.878 98.996 42.194-112.301-40.282-28.564-27.791 41.869zM474.423 634.29l-38.369 30.435 43.171 112.301 23.029-99.931-27.831-42.804zM815.803 262.15c8.953 1.261 16.153 5.697 21.566 13.346 5.454 7.609 8.464 16.804 9.115 27.586 0 3.173 0.325 8.423 0.935 15.706 0.651 7.283 0.977 14.73 0.977 22.379 0 7.609-0.325 14.769-0.977 21.403-0.651 6.673-1.587 10.619-2.889 11.882-2.563 2.524-4.964 3.662-7.202 3.335-2.238-0.325-3.335 0.815-3.335 3.335 0 1.261-0.163 5.249-0.489 11.882-0.325 6.673-2.076 16.357-5.29 29.011-1.261 6.348-3.215 12.045-5.737 17.131-2.563 5.086-5.454 9.521-8.626 13.346-3.215 4.435-7.039 8.545-11.516 12.369-0.651 5.086-0.977 9.846-0.977 14.283v21.89c0.651 4.435 1.913 7.609 3.824 9.521 1.913 1.913 5.737 3.499 11.516 4.762 2.563 0.651 8.626 2.524 18.228 5.697 9.602 3.173 19.979 6.834 31.167 10.945 11.19 4.11 21.566 7.935 31.167 11.434 9.602 3.499 16.316 6.185 20.141 8.097 7.649 3.824 12.939 7.772 15.827 11.882 2.889 4.11 4.964 9.683 6.226 16.641 0.651 3.173 1.587 9.196 2.889 18.066 1.261 8.87 2.563 18.391 3.824 28.564 1.261 10.173 2.563 19.369 3.824 27.586 1.261 8.26 1.913 13.631 1.913 16.195 0.651 5.086-0.163 9.358-2.401 12.857-2.238 3.499-7.202 5.859-14.851 7.12-6.388 1.261-14.689 2.848-24.942 4.762-10.212 1.913-23.641 3.499-40.282 4.762-1.261-7.609-3.215-14.893-5.737-21.89-1.913-6.348-4.15-13.020-6.714-19.979-2.563-6.998-5.737-13.020-9.602-18.066-7.039-9.521-14.364-17.131-22.052-22.826-7.691-5.697-15.34-10.457-23.029-14.283-7.691-3.785-15.34-6.834-23.029-9.033-7.691-2.197-15.34-4.597-23.029-7.12-32.592-11.434-58.796-19.369-78.61-23.804-19.814-4.435-31.005-8.26-33.568-11.434-1.261-1.913-2.076-4.11-2.401-6.673-0.325-2.524-0.489-5.371-0.489-8.545s0.325-6.673 0.935-10.457c8.953-2.524 15.666-4.11 20.141-4.762 4.476-0.651 7.974-1.261 10.538-1.913 5.126-1.261 9.927-2.686 14.403-4.272 4.476-1.587 6.714-3.988 6.714-7.12v-33.325l-1.913-0.935-3.824-1.913c-1.261-0.651-2.563-2.238-3.824-4.762 3.824-8.26 7.649-18.107 11.516-29.499 3.215-10.173 6.551-22.542 10.050-37.107 3.499-14.607 6.551-32.063 9.115-52.367 1.913-15.869 3.215-30.15 3.824-42.845 0.651-12.694 0.977-23.804 0.977-33.325v-29.499c7.691-1.261 15.827-1.913 24.453-1.913s15.503 0.651 20.629 1.913c10.865 3.173 17.414 6.348 19.653 9.521 2.238 3.173 4.639 5.697 7.202 7.609 2.563 1.261 5.29 1.75 8.138 1.423 2.97-0.325 8.219 0.163 15.909 1.423v0zM766.895 566.705l6.714 25.716 17.252 5.697 13.428-34.259-20.141-17.131-17.252 19.979zM717.052 549.577l-16.316 16.195 0.977 3.824 29.744 8.545 3.824-10.457-18.228-18.107zM291.283 241.237c-10.212-1.302-20.466-1.627-30.679-0.977-8.953 0.651-18.717 2.238-29.255 4.762-10.538 2.524-20.304 6.998-29.255 13.346-7.649 5.045-13.711 11.067-18.188 18.066-4.476 6.958-7.812 14.119-10.050 21.403-2.238 7.283-3.662 14.119-4.314 20.466-0.651 6.348-0.977 11.434-0.977 15.218-0.651 8.26-1.261 15.706-1.913 22.379-0.651 6.673-0.325 12.531 0.935 17.618 1.261 5.086 2.238 8.586 2.889 10.457 0.651 1.913 1.913 3.499 3.824 4.762 1.913 1.261 3.499 2.076 4.801 2.361 1.261 0.325 2.563 4.597 3.824 12.857 0.651 8.26 2.726 16.316 6.226 24.29 3.499 7.935 7.202 14.444 11.027 19.49 1.913 3.173 4.314 6.185 7.202 9.033 2.889 2.848 5.615 5.859 8.138 9.033 2.563 3.173 5.737 6.348 9.602 9.521v27.628c-0.651 3.785-2.076 6.958-4.314 9.521-2.238 2.524-6.551 4.435-12.939 5.697-3.215 0.651-8.464 1.913-15.827 3.824-7.365 1.913-15.34 3.947-23.965 6.185-8.626 2.238-17.252 4.597-25.878 7.12-8.626 2.524-15.503 4.762-20.629 6.673-18.554 8.87-29.744 24.087-33.568 45.693-2.563 10.173-5.454 22.826-8.626 38.085-3.215 15.218-5.454 25.999-6.714 32.348-1.261 6.348-1.098 13.020 0.489 19.979 1.587 6.998 6.877 11.434 15.827 13.346 4.476 1.261 10.050 2.197 16.764 2.848 6.714 0.651 13.265 1.587 19.653 2.848 7.039 1.261 14.364 2.238 22.052 2.848 1.261-7.609 3.215-15.218 5.737-22.826 1.913-6.998 4.639-13.957 8.138-20.955 3.499-6.998 7.812-13.631 12.939-19.979 5.126-5.697 11.353-11.27 18.717-16.641 7.365-5.411 14.526-10.619 21.566-15.706 7.691-5.697 15.99-11.108 24.942-16.195l-9.602-23.804 21.077-16.195 22.052 24.739 11.516-2.848c1.261 0 3.215-0.651 5.737-1.913 1.261-0.651 2.563-0.935 3.824-0.935l18.228-20.914 16.316 13.346c3.215-0.651 6.062-1.261 8.626-1.913s5.454-1.261 8.626-1.913l9.602-1.913c7.039-1.261 12.939-2.524 17.742-3.824 4.801-1.261 7.526-4.435 8.138-9.521 0-2.524 0.163-4.597 0.489-6.185 0.325-1.587 0.489-3.010 0.489-4.272v-2.848c-5.737-1.913-11.19-3.785-16.316-5.697l-13.428-3.824c-4.476-1.261-7.974-2.524-10.538-3.824-5.126-1.913-7.974-4.597-8.626-8.097-0.651-3.499-0.977-8.097-0.977-13.793v-9.521c0-3.173 0.325-6.348 0.977-9.521 0-3.173 0.325-6.998 0.977-11.434-5.126-7.609-10.212-15.869-15.34-24.739-4.476-7.609-8.789-16.357-12.939-26.163-4.15-9.846-7.526-20.141-10.050-30.924-3.215-14.565-5.454-30.11-6.714-46.628-1.302-16.519-1.587-31.41-0.977-44.717 0-15.869 0.977-31.41 2.889-46.628v0zM291.283 241.237z" fill="#d81e06" p-id="8446"></path></svg>