<?xml version="1.0" standalone="no"?><!DOCTYPE svg PUBLIC "-//W3C//DTD SVG 1.1//EN" "http://www.w3.org/Graphics/SVG/1.1/DTD/svg11.dtd"><svg t="1761555349614" class="icon" viewBox="0 0 1024 1024" version="1.1" xmlns="http://www.w3.org/2000/svg" p-id="5626" xmlns:xlink="http://www.w3.org/1999/xlink" width="200" height="200"><path d="M841.2 100.5H182.8c-45.5 0-82.3 36.8-82.3 82.3v658.4c0 45.5 36.8 82.3 82.3 82.3h658.4c45.5 0 82.3-36.8 82.3-82.3V182.8c0-45.5-36.8-82.3-82.3-82.3zM388.5 717.8c0 22.7-18.4 41.1-41.1 41.1h-41.2c-22.7 0-41.2-18.4-41.2-41.1V512c0-22.7 18.4-41.2 41.2-41.2h41.2c22.7 0 41.1 18.4 41.1 41.2v205.8z m205.8 0c0 22.7-18.4 41.1-41.1 41.1H512c-22.7 0-41.2-18.4-41.2-41.1V306.2c0-22.7 18.4-41.2 41.2-41.2h41.2c22.7 0 41.1 18.4 41.1 41.2v411.6z m205.7 0c0 22.7-18.4 41.1-41.1 41.1h-41.2c-22.7 0-41.2-18.4-41.2-41.1V594.3c0-22.7 18.4-41.2 41.2-41.2h41.2c22.7 0 41.1 18.4 41.1 41.2v123.5z" fill="#d81e06" p-id="5627"></path></svg>